<svg width="144" height="15" viewBox="0 0 144 15" fill="none" xmlns="http://www.w3.org/2000/svg">
<path d="M0.536 0.559999H1.928V5.744H7.944V0.559999H9.336V12H7.944V6.912H1.928V12H0.536V0.559999ZM13.0235 0.559999H19.6955V1.696H14.4155V5.584H18.6715V6.72H14.4155V10.864H19.9835V12H13.0235V0.559999ZM24.9604 7.984C24.8644 9.31733 24.6137 10.2667 24.2084 10.832H29.7764V1.696H25.2964C25.275 1.99467 25.2484 2.56 25.2164 3.392C25.1844 4.21333 25.147 5.024 25.1044 5.824C25.0617 6.61333 25.0137 7.33333 24.9604 7.984ZM22.8964 14.08H21.7444V10.832H22.4644C22.8484 10.7147 23.1257 10.4213 23.2964 9.952C23.4777 9.48267 23.6164 8.78933 23.7124 7.872C23.8404 6.28267 23.931 4.66667 23.9844 3.024C24.027 1.904 24.0537 1.08267 24.0644 0.559999H31.1364V10.832H32.4164V14.08H31.2644L31.1844 12H22.9764L22.8964 14.08ZM35.0766 0.559999H38.5166C40.97 0.559999 42.1966 1.54667 42.1966 3.52V3.584C42.1966 4.8 41.6206 5.60533 40.4686 6C41.29 6.192 41.8766 6.50667 42.2286 6.944C42.5806 7.38133 42.7566 7.97867 42.7566 8.736V8.8C42.7566 9.856 42.4206 10.656 41.7486 11.2C41.0873 11.7333 40.17 12 38.9966 12H35.0766V0.559999ZM38.9646 10.912C40.586 10.912 41.3966 10.2027 41.3966 8.784V8.72C41.3966 8.00533 41.1886 7.48267 40.7726 7.152C40.3566 6.81067 39.69 6.64 38.7726 6.64H36.4366V10.912H38.9646ZM38.5166 5.552C39.3486 5.552 39.9406 5.39733 40.2926 5.088C40.6553 4.768 40.8366 4.25067 40.8366 3.536V3.472C40.8366 2.832 40.6446 2.368 40.2606 2.08C39.8873 1.792 39.2953 1.648 38.4846 1.648H36.4366V5.552H38.5166ZM45.7338 12V0.559999H47.1258V10.08L53.3018 0.559999H54.6938V12H53.3018V2.48L47.1258 12H45.7338ZM63.2575 6.384L58.7935 12H57.2415L61.8975 6.192L57.3695 0.559999H58.9215L63.2575 6.096V0.559999H64.6175V6.096L68.9535 0.559999H70.4735L66.0095 6.112L70.6975 12H69.0815L64.6175 6.384V12H63.2575V6.384ZM73.24 12V0.559999H74.632V10.08L80.808 0.559999H82.2V12H80.808V2.48L74.632 12H73.24ZM85.9797 0.559999H87.9157L91.4517 9.472L94.8757 0.559999H96.7957V12H95.4037V2.368L91.6117 12H91.1797L87.2597 2.368V12H85.9797V0.559999ZM105.587 10.992C106.846 10.992 107.843 10.56 108.579 9.696C109.326 8.832 109.699 7.70133 109.699 6.304V6.176C109.699 4.85333 109.326 3.74933 108.579 2.864C107.832 1.97867 106.824 1.536 105.555 1.536C104.254 1.536 103.23 1.968 102.483 2.832C101.736 3.68533 101.363 4.81067 101.363 6.208V6.336C101.363 7.70133 101.763 8.82133 102.563 9.696C103.374 10.56 104.382 10.992 105.587 10.992ZM105.587 12.144C103.923 12.144 102.563 11.5893 101.507 10.48C100.451 9.36 99.9229 7.984 99.9229 6.352V6.224C99.9229 4.57067 100.446 3.18933 101.491 2.08C102.547 0.970666 103.902 0.415999 105.555 0.415999C107.208 0.415999 108.552 0.970666 109.587 2.08C110.622 3.17867 111.139 4.54933 111.139 6.192V6.32C111.139 7.96267 110.622 9.344 109.587 10.464C108.552 11.584 107.219 12.144 105.587 12.144ZM119.036 12.144C117.382 12.144 116.076 11.6213 115.116 10.576C114.166 9.53067 113.692 8.12267 113.692 6.352V6.224C113.692 4.528 114.198 3.13067 115.212 2.032C116.225 0.933333 117.51 0.384 119.068 0.384C120.316 0.384 121.366 0.709333 122.22 1.36C123.084 2.01067 123.58 2.93333 123.708 4.128H122.332C122.172 3.24267 121.83 2.58133 121.308 2.144C120.796 1.70667 120.054 1.488 119.084 1.488C117.9 1.488 116.945 1.92 116.22 2.784C115.494 3.63733 115.132 4.77867 115.132 6.208V6.336C115.132 7.79733 115.478 8.944 116.172 9.776C116.876 10.5973 117.841 11.008 119.068 11.008C120.017 11.008 120.79 10.7733 121.388 10.304C121.996 9.824 122.374 9.12533 122.524 8.208H123.82C123.628 9.49867 123.11 10.48 122.268 11.152C121.425 11.8133 120.348 12.144 119.036 12.144ZM128.935 1.696H125.607V0.559999H133.655V1.696H130.327V12H128.935V1.696ZM136.256 0.559999H137.648V5.216H139.504C140.688 5.216 141.648 5.48267 142.384 6.016C143.13 6.54933 143.504 7.38667 143.504 8.528V8.592C143.504 9.712 143.125 10.56 142.368 11.136C141.621 11.712 140.666 12 139.504 12H136.256V0.559999ZM139.6 10.88C141.274 10.88 142.112 10.1173 142.112 8.592V8.528C142.112 7.056 141.274 6.32 139.6 6.32H137.648V10.88H139.6Z" fill="#312E2D"/>
</svg>
