<svg width="28" height="29" viewBox="0 0 28 29" fill="none" xmlns="http://www.w3.org/2000/svg">
<path d="M28 0H0V28.0029H28V0Z" fill="#00077B"/>
<path fill-rule="evenodd" clip-rule="evenodd" d="M1.91406 18.9219H8.16481L7.31053 20.4218H5.66988V25.3669H4.10491V20.4218H1.91406V18.9219Z" fill="white"/>
<path fill-rule="evenodd" clip-rule="evenodd" d="M16.8243 20.4218C16.6467 20.4218 16.5199 20.5334 16.5199 20.7216V23.5759C16.5199 23.7645 16.6467 23.8672 16.8243 23.8672H20.0636V25.3669H16.8243C15.6907 25.3669 14.9551 24.673 14.9551 23.5759V20.7216C14.9551 19.6333 15.6907 18.9219 16.8243 18.9219H20.4527L19.5984 20.4218H16.8243Z" fill="white"/>
<path fill-rule="evenodd" clip-rule="evenodd" d="M12.4302 23.9137H10.1695C9.84697 23.9137 9.61137 23.6748 9.61137 23.3475C9.61137 23.0114 9.84697 22.7724 10.1695 22.7724H12.4302V23.9137ZM12.1341 18.9219H9.20787L8.35301 20.4218H12.1341C12.3203 20.4218 12.4302 20.5334 12.4302 20.7218V21.4074H9.97732C8.85223 21.4074 8.02344 22.2474 8.02344 23.3871C8.02344 24.5272 8.85223 25.3669 9.97732 25.3669H13.995V20.7218C13.995 19.6333 13.2592 18.9219 12.1341 18.9219Z" fill="white"/>
<path fill-rule="evenodd" clip-rule="evenodd" d="M22.6308 20.4218C22.4533 20.4218 22.3265 20.5334 22.3265 20.7216V23.5759C22.3265 23.7645 22.4533 23.8672 22.6308 23.8672H25.8703V25.3669H22.6308C21.4977 25.3669 20.7617 24.673 20.7617 23.5759V20.7216C20.7617 19.6333 21.4977 18.9219 22.6308 18.9219H26.2597L25.4051 20.4218H22.6308Z" fill="white"/>
</svg>
