<svg width="145" height="20" viewBox="0 0 145 20" fill="none" xmlns="http://www.w3.org/2000/svg">
<g clip-path="url(#clip0)">
<path d="M144.406 2.76153C144.406 1.80636 143.603 1.03143 142.613 1.03143C141.63 1.03154 140.821 1.81263 140.821 2.76141C140.821 3.71031 141.631 4.49093 142.613 4.49116C143.597 4.49152 144.405 3.71055 144.406 2.76153ZM140.518 2.76141C140.518 1.65121 141.463 0.738281 142.613 0.738281C143.769 0.738281 144.709 1.64517 144.709 2.76094C144.71 3.87091 143.763 4.78395 142.614 4.78431C141.463 4.78466 140.518 3.87162 140.518 2.76141Z" fill="#7F7F7F"/>
<path fill-rule="evenodd" clip-rule="evenodd" d="M142.551 1.27471C142.606 1.77046 143.02 1.4888 143.198 1.35033C143.263 1.30051 143.343 1.20879 143.387 1.18299C143.415 1.1669 143.456 1.17826 143.473 1.21199C143.49 1.26181 143.497 1.32465 143.465 1.41637C143.427 1.52418 143.362 1.6288 143.325 1.68513C143.23 1.83319 143.137 1.96349 143.025 2.10029C142.843 2.31923 142.613 2.49297 142.423 2.70706C142.131 3.03535 141.966 3.54234 142.056 3.9704C142.08 4.07976 142.133 4.21822 142.241 4.27609C142.885 4.6206 143.357 3.14316 143.138 2.70706C143.108 2.65072 143.048 2.5493 142.968 2.56386C142.565 2.63628 142.378 3.90117 142.63 3.99289C142.617 4.1426 142.371 4.23432 142.3 3.9575C142.276 3.86093 142.271 3.75951 142.275 3.65974C142.287 3.23808 142.636 2.60078 143.037 2.4061C143.218 2.31592 143.475 2.31758 143.577 2.51877C143.935 3.23488 142.967 4.55776 142.128 4.43704C141.723 4.37752 141.576 4.00259 141.608 3.64684C141.633 3.35406 141.759 3.07559 141.935 2.83736C142.288 2.35782 142.845 2.21781 143.115 1.84123C143.115 1.84123 143.125 1.82679 143.127 1.81875C143.131 1.80691 143.117 1.79295 143.099 1.80691C143.069 1.83271 142.914 1.90999 142.805 1.92277C142.587 1.94692 142.468 1.65886 142.432 1.49957C142.424 1.46418 142.422 1.43684 142.387 1.48181C142.28 1.61543 142.198 2.36219 142.09 2.40397L141.666 2.56658C141.666 2.56658 141.648 2.57486 141.642 2.55048C141.593 2.37663 142.03 1.77318 142.152 1.57034C142.168 1.54466 142.268 1.35637 142.287 1.34181C142.318 1.31613 142.512 1.26784 142.552 1.27424L142.551 1.27471Z" fill="#7F7F7F"/>
<path d="M15.7294 15.465H9.89715L6.32512 9.74818L5.16453 10.9138V15.465H0.289062V1.08203H5.16453V5.72417L9.34493 1.08203H15.0631L9.70172 6.44656L15.7294 15.465ZM22.2574 10.1291C22.2574 9.47149 22.0975 8.87514 21.7774 8.34696C21.4574 7.81878 20.9634 7.55298 20.2886 7.55298C19.6867 7.55298 19.2311 7.81878 18.9249 8.35039C18.6188 8.88532 18.4658 9.47835 18.4658 10.1291C18.4658 10.8277 18.6292 11.4888 18.9563 12.1056C19.2798 12.7258 19.7806 13.0358 20.452 13.0358C21.0991 13.0358 21.5617 12.736 21.84 12.1329C22.1184 11.5298 22.2574 10.8618 22.2574 10.1291ZM25.6389 13.3697C24.4869 15.0186 22.5123 15.7902 20.47 15.7902C18.3654 15.7902 16.3368 15.0251 15.1605 13.3106C14.0816 11.7378 13.9435 9.17326 14.8524 7.4951C15.5517 6.20359 16.8333 5.27007 18.3027 4.89077C19.9212 4.45715 21.6731 4.55088 23.227 5.1696C24.6801 5.74595 25.7611 6.93178 26.2318 8.3414C26.7458 9.8805 26.5624 12.0477 25.6389 13.3697ZM63.4214 9.07408C63.2689 8.38909 63.0181 7.91429 62.6721 7.64967C62.3229 7.38114 61.8821 7.24883 61.343 7.24883C60.8208 7.24883 60.4071 7.37735 60.102 7.63795C59.7968 7.89488 59.5662 8.37359 59.4068 9.07408H63.4214ZM67.5922 11.1054H59.449C59.449 11.4292 59.5066 11.7133 59.6218 11.9609C59.9723 12.7139 60.6063 13.2222 61.5139 13.2222C62.1805 13.2222 62.9493 12.9632 63.0926 12.2643H67.2632C67.1049 13.256 66.4492 14.1309 65.6052 14.7058C64.7537 15.2841 63.708 15.6062 62.6755 15.7199C61.3513 15.877 59.8194 15.8343 58.5931 15.3401C57.1664 14.7677 56.1011 13.7096 55.521 12.3441C54.9882 11.0132 54.9809 9.53694 55.4973 8.19536C56.033 6.80361 57.1359 5.72725 58.566 5.15646C60.3051 4.46532 62.7401 4.51218 64.4218 5.32156C65.9139 6.03708 66.9317 7.25687 67.3548 8.79644C67.5636 9.5709 67.6429 10.3129 67.5921 11.1054H67.5922ZM79.2735 13.3897C78.4723 14.8639 76.9925 15.7848 75.2089 15.7848C73.9279 15.7848 73.0852 15.3829 72.2195 14.5252V19.0352H67.875V5.02024H71.7218V6.58289C72.5563 4.978 74.6215 4.3949 76.2877 4.79977C78.103 5.23682 79.3256 6.71011 79.7608 8.36602C80.1677 9.90511 80.0266 12.0148 79.2735 13.3897ZM75.7348 9.98204C75.7348 9.53907 75.5827 9.0555 75.2746 8.53466C74.9666 8.01394 74.5202 7.75357 73.9388 7.75357C73.3609 7.75357 72.9145 7.99701 72.6031 8.48732C72.2916 8.97432 72.1358 9.47137 72.1358 9.98204C72.1358 10.6077 72.257 11.1927 72.4992 11.7338C72.7448 12.2749 73.2225 12.5454 73.9388 12.5454C74.6379 12.5454 75.1086 12.2647 75.3611 11.7034C75.5898 11.1616 75.7348 10.5692 75.7348 9.98204ZM89.3304 15.3448C87.6422 15.9155 85.3477 16.003 83.667 15.328C82.6087 14.903 81.6706 14.1858 81.0782 13.2322C80.4991 12.3163 80.1982 11.2611 80.1982 10.187C80.1982 9.47161 80.3542 8.76863 80.6162 8.10116C81.2233 6.60029 82.2733 5.73908 83.7893 5.1425C85.5241 4.45964 88.1011 4.48449 89.7483 5.34972C91.3182 6.17436 92.14 7.31001 92.3558 8.98367H87.9103C87.8321 8.46886 87.6817 8.15063 87.4618 7.87914C86.8392 7.10965 85.4299 7.48564 84.98 8.24495C84.4062 9.21385 84.3113 10.645 84.6742 11.7071C84.9136 12.4071 85.7013 13.0006 86.4665 13.0006C87.5513 13.0006 87.7764 12.2955 88.0598 11.419H92.3558C92.3108 13.1715 91.2252 14.7041 89.3304 15.3448ZM100.28 11.3579C100.28 11.1635 100.262 11.0038 100.226 10.8823C99.9278 11.0419 99.4623 11.1809 98.8298 11.2989C98.348 11.3838 97.8356 11.4878 97.4048 11.7156C96.794 12.0071 96.827 12.8429 97.3611 13.1806C97.979 13.5394 99.0154 13.5098 99.535 13.0071C100.03 12.5522 100.28 12.0037 100.28 11.3579H100.28ZM105.114 15.465H100.667L100.498 14.3587C100.174 14.7631 99.4493 15.0963 98.7179 15.3681C98.3613 15.5006 97.9949 15.6055 97.6198 15.6722C97.2448 15.7358 96.846 15.7693 96.4305 15.7693C95.6804 15.7693 94.9944 15.6423 94.3728 15.3882C93.7511 15.1341 93.2815 14.7364 92.9571 14.2016C92.6665 13.6133 92.5212 13.0182 92.5212 12.4099C92.5212 11.641 92.8922 11.007 93.4021 10.4387C93.6928 10.1146 93.9775 9.93245 94.491 9.74203C94.7343 9.65185 94.9748 9.5735 95.2107 9.50806C95.4444 9.4432 95.6658 9.38143 95.8763 9.35089L97.6975 9.08686C98.4705 8.97479 99.2181 8.8781 99.5485 8.77265C99.7518 8.70768 99.9916 8.4956 100.11 8.36187C100.228 8.22826 100.211 8.08778 100.211 7.94411C100.211 7.74683 100.113 7.58304 99.9134 7.44942C99.7142 7.31569 99.4302 7.24883 99.062 7.24883C98.6194 7.24883 98.0692 7.31238 97.8022 7.43936C97.5353 7.56635 97.3629 7.82044 97.2819 8.19808H93.1627C93.3012 7.51286 93.2761 7.11285 93.4774 6.69437C93.6781 6.2772 93.9944 5.91897 94.4269 5.62144C94.8593 5.32404 95.4532 5.09279 96.2142 4.93953C96.5817 4.86557 97.0185 4.81397 97.5151 4.77574C98.0152 4.73716 98.5693 4.71562 99.1842 4.71562C100.681 4.71562 101.802 4.88746 102.549 5.23031C103.295 5.57269 103.782 5.84855 104.009 6.363C104.235 6.87473 104.387 7.5396 104.458 8.35525V13.8773C104.458 14.4456 104.678 14.8668 105.114 15.1409V15.465V15.465ZM117.198 15.465H112.908V11.5614H109.731V15.465H105.483L105.479 5.18309L105.483 5.02593H109.731V8.52377H112.86V5.02593H117.198L117.194 15.2779L117.198 15.465ZM129.118 8.10258H125.424V15.465H121.121V8.10258H117.396V5.02593H129.118V8.10258ZM143.052 12.1245C143.052 13.0414 142.599 13.847 141.872 14.4216C140.916 15.1851 139.593 15.465 138.378 15.465H131.738V8.10258H129.258V5.02593H135.878V8.68981H138.143C139.404 8.68981 140.802 8.92781 141.801 9.72712C142.553 10.328 143.052 11.1683 143.052 12.1245ZM138.775 12.1351C138.775 11.4756 138.397 11.1989 137.747 11.1237C137.615 11.1237 137.354 11.1131 136.967 11.0971C136.58 11.0804 136.062 11.0738 135.878 11.0738V13.0899L136.954 13.1099C137.247 13.1159 137.489 13.104 137.676 13.0899C138.337 13.0426 138.775 12.8693 138.775 12.1351V12.1351ZM34.8394 15.4649H32.7544L30.4761 8.49135L30.828 11.2247V15.4649H27.0235V4.96569H31.9028L33.7969 10.7653L35.6911 4.96569H40.5705V15.4649H36.7658V11.2247L37.1177 8.49135L34.8394 15.4649ZM49.0868 15.4649H47.0018L44.7235 8.49135L45.0754 11.2247V15.4649H41.2708V4.96569H46.1502L48.0443 10.7653L49.9385 4.96569H54.8177V15.4649H51.0132V11.2247L51.3651 8.49135L49.0868 15.4649Z" fill="black"/>
</g>
<defs>
<clipPath id="clip0">
<rect width="145" height="19.5946" fill="white"/>
</clipPath>
</defs>
</svg>
