<svg width="62" height="87" viewBox="0 0 62 87" fill="none" xmlns="http://www.w3.org/2000/svg">
<path d="M8.936 77.738H5.338V81H4.176V73.678H5.338V76.758H8.936V73.678H10.098V81H8.936V77.738ZM16.0455 81.126C15.3268 81.126 14.7388 80.9487 14.2815 80.594C13.8335 80.23 13.6095 79.6887 13.6095 78.97C13.6095 78.5687 13.7075 78.2187 13.9035 77.92C14.1088 77.612 14.3888 77.374 14.7435 77.206C15.0982 77.0287 15.4855 76.9027 15.9055 76.828C16.3255 76.744 16.7828 76.702 17.2775 76.702H18.3275V76.17C18.3275 75.582 18.2062 75.162 17.9635 74.91C17.7208 74.6487 17.3195 74.518 16.7595 74.518C15.7515 74.518 15.1915 74.9567 15.0795 75.834H13.9175C13.9922 75.05 14.2955 74.476 14.8275 74.112C15.3688 73.7387 16.0315 73.552 16.8155 73.552C18.5982 73.552 19.4895 74.4247 19.4895 76.17V81H18.3275V80.076C17.7675 80.776 17.0068 81.126 16.0455 81.126ZM16.1575 80.202C16.7922 80.202 17.3102 80.048 17.7115 79.74C18.1222 79.4227 18.3275 78.9887 18.3275 78.438V77.528H17.3195C15.6208 77.528 14.7715 78.0087 14.7715 78.97C14.7715 79.7913 15.2335 80.202 16.1575 80.202ZM23.368 73.678H25.93C27.6474 73.678 28.506 74.2987 28.506 75.54V75.582C28.506 75.9367 28.408 76.2633 28.212 76.562C28.016 76.8513 27.722 77.0473 27.33 77.15C28.3474 77.374 28.856 77.9247 28.856 78.802V78.844C28.856 79.5533 28.6227 80.09 28.156 80.454C27.6987 80.818 27.0594 81 26.238 81H23.368V73.678ZM24.53 74.602V76.772H25.93C26.4154 76.772 26.7607 76.6833 26.966 76.506C27.1807 76.3287 27.288 76.0393 27.288 75.638V75.596C27.288 75.2227 27.176 74.966 26.952 74.826C26.7374 74.6767 26.392 74.602 25.916 74.602H24.53ZM24.53 77.696V80.076H26.126C26.6394 80.076 27.0174 79.9873 27.26 79.81C27.512 79.6233 27.638 79.3247 27.638 78.914V78.872C27.638 78.4613 27.512 78.1627 27.26 77.976C27.0174 77.7893 26.6394 77.696 26.126 77.696H24.53ZM35.4698 81.126C34.4245 81.126 33.5705 80.7853 32.9078 80.104C32.2545 79.4227 31.9278 78.5267 31.9278 77.416V77.304C31.9278 76.2027 32.2452 75.302 32.8798 74.602C33.5238 73.902 34.3498 73.552 35.3578 73.552C36.2912 73.552 37.0705 73.8553 37.6958 74.462C38.3305 75.0593 38.6478 75.9693 38.6478 77.192V77.57H33.1318C33.1878 79.2967 33.9718 80.16 35.4838 80.16C36.6318 80.16 37.2805 79.7353 37.4298 78.886H38.5918C38.4612 79.614 38.1205 80.1693 37.5698 80.552C37.0192 80.9347 36.3192 81.126 35.4698 81.126ZM37.4578 76.632C37.3552 75.2227 36.6552 74.518 35.3578 74.518C34.7698 74.518 34.2845 74.7047 33.9018 75.078C33.5192 75.4513 33.2765 75.9693 33.1738 76.632H37.4578ZM42.1109 73.678H43.2729V74.91C43.4875 74.5367 43.8235 74.2193 44.2809 73.958C44.7382 73.6873 45.2282 73.552 45.7509 73.552C46.7309 73.552 47.5289 73.8833 48.1449 74.546C48.7702 75.2087 49.0829 76.1047 49.0829 77.234V77.346C49.0829 78.4753 48.7749 79.39 48.1589 80.09C47.5522 80.7807 46.7495 81.126 45.7509 81.126C44.6309 81.126 43.8049 80.6827 43.2729 79.796V83.548H42.1109V73.678ZM45.6389 80.16C46.3669 80.16 46.9222 79.9267 47.3049 79.46C47.6875 78.984 47.8789 78.298 47.8789 77.402V77.29C47.8789 76.4033 47.6642 75.722 47.2349 75.246C46.8149 74.7607 46.2782 74.518 45.6249 74.518C44.9155 74.518 44.3369 74.756 43.8889 75.232C43.4502 75.6987 43.2309 76.3847 43.2309 77.29V77.402C43.2309 78.3073 43.4455 78.9933 43.8749 79.46C44.3135 79.9267 44.9015 80.16 45.6389 80.16ZM54.1971 77.234L51.7471 73.678H53.1051L54.8971 76.338L56.6751 73.678H57.9351L55.5131 77.15L58.1871 81H56.8151L54.8411 78.046L52.8251 81H51.5791L54.1971 77.234Z" fill="#67605A"/>
<rect x="30.25" y="39.1143" width="16.5" height="0.5" rx="0.25" transform="rotate(-90 30.25 39.1143)" fill="white" stroke="#312E2D" stroke-width="0.5"/>
<path d="M24 29.001L30.5 22.001L37 29.001" stroke="#312E2D" stroke-linecap="round" stroke-linejoin="round"/>
<circle cx="31" cy="31" r="30.5" transform="rotate(180 31 31)" stroke="#67605A"/>
</svg>
