<svg width="103" height="31" viewBox="0 0 103 31" fill="none" xmlns="http://www.w3.org/2000/svg">
<path d="M0 0H3.73993L10.8199 11.9254V0H13.666V16.4926H10.4201L2.84611 3.85211V16.4926H0V0Z" fill="#312E2D"/>
<path d="M19.9704 0H30.4845V2.42199H23.0988V6.94303H29.0262V9.24969H23.0988V14.0706H30.8844V16.4926H19.9704V0Z" fill="#312E2D"/>
<path d="M41.1137 14.0706C42.9798 14.0706 44.3754 13.5785 45.3006 12.5943C46.2258 11.5948 46.6884 10.1647 46.6884 8.30396V8.11943C46.6884 4.32113 44.8223 2.42199 41.0902 2.42199H39.279V14.0706H41.1137ZM36.1507 0H41.2549C44.0931 0 46.2493 0.730441 47.7233 2.19132C49.213 3.63683 49.9579 5.59748 49.9579 8.07329V8.28089C49.9579 10.7721 49.213 12.7635 47.7233 14.2551C46.2336 15.7468 44.0618 16.4926 41.2078 16.4926H36.1507V0Z" fill="#312E2D"/>
<path d="M53.2862 0H56.5557L60.9307 13.3786L65.3292 0H68.2694L62.5772 16.4926H58.9549L53.2862 0Z" fill="#312E2D"/>
<path d="M73.1742 0H83.6884V2.42199H76.3026V6.94303H82.23V9.24969H76.3026V14.0706H84.0882V16.4926H73.1742V0Z" fill="#312E2D"/>
<path d="M93.6825 8.02716L88.6489 0H92.1771L95.7524 5.8589L99.3041 0H102.527L97.5635 7.95796L102.95 16.4926H99.3747L95.4231 10.057L91.4715 16.4926H88.2725L93.6825 8.02716Z" fill="#312E2D"/>
<path d="M3.63874 31C2.5342 31 1.66292 30.6636 1.0249 29.9908C0.393738 29.3113 0.078156 28.43 0.078156 27.3468V27.2661C0.078156 26.2031 0.407458 25.3251 1.06606 24.6322C1.73153 23.9325 2.58909 23.5827 3.63874 23.5827C4.42083 23.5827 5.08973 23.7744 5.64543 24.1579C6.20112 24.5346 6.53042 25.1065 6.63333 25.8735H5.73804C5.54595 24.8105 4.85304 24.279 3.65932 24.279C2.82234 24.279 2.1706 24.5515 1.70409 25.0964C1.23757 25.6346 1.00432 26.3545 1.00432 27.256V27.3367C1.00432 28.2517 1.23071 28.975 1.68351 29.5064C2.1363 30.0312 2.78804 30.2936 3.63874 30.2936C4.40025 30.2936 4.9731 30.0817 5.35728 29.6578C5.74147 29.234 5.94042 28.6789 5.95415 27.9927H3.80339V27.2661H6.82885V27.801C6.82885 28.8236 6.53728 29.6141 5.95415 30.1725C5.37787 30.7242 4.60606 31 3.63874 31Z" fill="#312E2D"/>
<path d="M25.1288 23.6937H27.3413C28.1028 23.6937 28.7202 23.8585 29.1936 24.1882C29.6738 24.5178 29.9139 25.0224 29.9139 25.7019V25.7423C29.9139 26.3007 29.7459 26.7447 29.4097 27.0744C29.0735 27.3973 28.6345 27.6092 28.0925 27.7101L30.3462 30.9092H29.348L27.156 27.7707H26.0241V30.9092H25.1288V23.6937ZM27.403 27.0744C28.4801 27.0744 29.0187 26.6303 29.0187 25.7423V25.7019C29.0187 25.231 28.8814 24.8979 28.607 24.7028C28.3326 24.501 27.9313 24.4001 27.403 24.4001H26.0241V27.0744H27.403Z" fill="#312E2D"/>
<path d="M51.5644 30.2734C52.3739 30.2734 53.0154 30.0009 53.4887 29.456C53.969 28.911 54.2091 28.1979 54.2091 27.3166V27.2358C54.2091 26.4016 53.969 25.7053 53.4887 25.1469C53.0085 24.5885 52.3602 24.3093 51.5438 24.3093C50.7068 24.3093 50.0482 24.5817 49.568 25.1267C49.0877 25.6649 48.8476 26.3747 48.8476 27.256V27.3367C48.8476 28.1979 49.1049 28.9043 49.6194 29.456C50.1408 30.0009 50.7891 30.2734 51.5644 30.2734ZM51.5644 31C50.4941 31 49.6194 30.6502 48.9402 29.9505C48.2611 29.2441 47.9215 28.3762 47.9215 27.3468V27.2661C47.9215 26.2233 48.2576 25.3521 48.93 24.6524C49.6091 23.9527 50.4804 23.6028 51.5438 23.6028C52.6072 23.6028 53.4716 23.9527 54.137 24.6524C54.8025 25.3453 55.1352 26.2098 55.1352 27.2459V27.3267C55.1352 28.3627 54.8025 29.234 54.137 29.9404C53.4716 30.6468 52.614 31 51.5644 31Z" fill="#312E2D"/>
<path d="M76.0073 31C75.1566 31 74.5014 30.7679 74.0418 30.3037C73.589 29.8327 73.3626 29.1566 73.3626 28.2753V23.6937H74.2579V28.1744C74.2579 28.9211 74.3951 29.4593 74.6695 29.789C74.9508 30.1119 75.4036 30.2734 76.0279 30.2734C76.659 30.2734 77.129 30.1119 77.4377 29.789C77.7464 29.4661 77.9008 28.8841 77.9008 28.0432V23.6937H78.7961V28.1643C78.7961 29.0658 78.5628 29.7655 78.0963 30.2633C77.6298 30.7544 76.9334 31 76.0073 31Z" fill="#312E2D"/>
<path d="M97.3811 23.6937H99.4702C100.225 23.6937 100.842 23.8686 101.322 24.2184C101.803 24.5616 102.043 25.0897 102.043 25.8028V25.8432C102.043 26.5698 101.803 27.108 101.322 27.4578C100.849 27.801 100.232 27.9725 99.4702 27.9725H98.2764V30.9092H97.3811V23.6937ZM99.5319 27.2762C100.06 27.2762 100.461 27.1551 100.736 26.9129C101.01 26.664 101.148 26.3074 101.148 25.8432V25.8028C101.148 24.8677 100.609 24.4001 99.5319 24.4001H98.2764V27.2762H99.5319Z" fill="#312E2D"/>
</svg>
